<mxfile host="Electron" agent="Mozilla/5.0 (Windows NT 10.0; Win64; x64) AppleWebKit/537.36 (KHTML, like Gecko) draw.io/27.0.9 Chrome/134.0.6998.205 Electron/35.4.0 Safari/537.36" version="27.0.9">
  <diagram name="第 1 页" id="hqonfULimSHoBbMAGJgi">
    <mxGraphModel dx="1659" dy="1112" grid="1" gridSize="10" guides="1" tooltips="1" connect="1" arrows="1" fold="1" page="1" pageScale="1" pageWidth="827" pageHeight="1169" math="0" shadow="0">
      <root>
        <mxCell id="0" />
        <mxCell id="1" parent="0" />
        <mxCell id="ypzjpSsrYSUvNgF2Mh3K-2" value="&lt;b&gt;&lt;font style=&quot;font-size: 14px;&quot;&gt;代码原则表&lt;/font&gt;&lt;/b&gt;" style="swimlane;fontStyle=0;childLayout=stackLayout;horizontal=1;startSize=40;horizontalStack=0;resizeParent=1;resizeParentMax=0;resizeLast=0;collapsible=1;marginBottom=0;whiteSpace=wrap;html=1;" parent="1" vertex="1">
          <mxGeometry x="40" y="40" width="320" height="400" as="geometry" />
        </mxCell>
        <mxCell id="ypzjpSsrYSUvNgF2Mh3K-3" value="原则1：尽量小的类（类原子化）" style="text;strokeColor=default;fillColor=none;align=left;verticalAlign=middle;spacingLeft=4;spacingRight=4;overflow=hidden;points=[[0,0.5],[1,0.5]];portConstraint=eastwest;rotatable=0;whiteSpace=wrap;html=1;" parent="ypzjpSsrYSUvNgF2Mh3K-2" vertex="1">
          <mxGeometry y="40" width="320" height="40" as="geometry" />
        </mxCell>
        <mxCell id="ypzjpSsrYSUvNgF2Mh3K-8" value="原则2：复杂树形分类下，用“依赖注入“进行同类重用管理" style="text;strokeColor=default;fillColor=none;align=left;verticalAlign=middle;spacingLeft=4;spacingRight=4;overflow=hidden;points=[[0,0.5],[1,0.5]];portConstraint=eastwest;rotatable=0;whiteSpace=wrap;html=1;" parent="ypzjpSsrYSUvNgF2Mh3K-2" vertex="1">
          <mxGeometry y="80" width="320" height="40" as="geometry" />
        </mxCell>
        <mxCell id="ypzjpSsrYSUvNgF2Mh3K-4" value="原则3：类、实例属性私有化，通过公有化方法访问" style="text;strokeColor=default;fillColor=none;align=left;verticalAlign=middle;spacingLeft=4;spacingRight=4;overflow=hidden;points=[[0,0.5],[1,0.5]];portConstraint=eastwest;rotatable=0;whiteSpace=wrap;html=1;" parent="ypzjpSsrYSUvNgF2Mh3K-2" vertex="1">
          <mxGeometry y="120" width="320" height="40" as="geometry" />
        </mxCell>
        <mxCell id="ypzjpSsrYSUvNgF2Mh3K-7" value="原则4：实例不再使用必须关闭，属性值作记录留存" style="text;strokeColor=default;fillColor=none;align=left;verticalAlign=middle;spacingLeft=4;spacingRight=4;overflow=hidden;points=[[0,0.5],[1,0.5]];portConstraint=eastwest;rotatable=0;whiteSpace=wrap;html=1;" parent="ypzjpSsrYSUvNgF2Mh3K-2" vertex="1">
          <mxGeometry y="160" width="320" height="40" as="geometry" />
        </mxCell>
        <mxCell id="ypzjpSsrYSUvNgF2Mh3K-6" value="原则5：方法以并且必须以返回值关闭" style="text;strokeColor=default;fillColor=none;align=left;verticalAlign=middle;spacingLeft=4;spacingRight=4;overflow=hidden;points=[[0,0.5],[1,0.5]];portConstraint=eastwest;rotatable=0;whiteSpace=wrap;html=1;" parent="ypzjpSsrYSUvNgF2Mh3K-2" vertex="1">
          <mxGeometry y="200" width="320" height="40" as="geometry" />
        </mxCell>
        <mxCell id="ypzjpSsrYSUvNgF2Mh3K-5" value="原则6：控制流（if、while、for循环）以并且必须以输出关闭" style="text;strokeColor=default;fillColor=none;align=left;verticalAlign=middle;spacingLeft=4;spacingRight=4;overflow=hidden;points=[[0,0.5],[1,0.5]];portConstraint=eastwest;rotatable=0;whiteSpace=wrap;html=1;" parent="ypzjpSsrYSUvNgF2Mh3K-2" vertex="1">
          <mxGeometry y="240" width="320" height="40" as="geometry" />
        </mxCell>
        <mxCell id="ypzjpSsrYSUvNgF2Mh3K-9" value="原则7：数据明确权限，谁创建谁管理；非修改途径获取数据，均需通过防御性复制" style="text;strokeColor=default;fillColor=none;align=left;verticalAlign=middle;spacingLeft=4;spacingRight=4;overflow=hidden;points=[[0,0.5],[1,0.5]];portConstraint=eastwest;rotatable=0;whiteSpace=wrap;html=1;" parent="ypzjpSsrYSUvNgF2Mh3K-2" vertex="1">
          <mxGeometry y="280" width="320" height="40" as="geometry" />
        </mxCell>
        <mxCell id="ypzjpSsrYSUvNgF2Mh3K-10" value="原则8：数据明确生命周期，交由创建者决定结束以及留存" style="text;strokeColor=default;fillColor=none;align=left;verticalAlign=middle;spacingLeft=4;spacingRight=4;overflow=hidden;points=[[0,0.5],[1,0.5]];portConstraint=eastwest;rotatable=0;whiteSpace=wrap;html=1;" parent="ypzjpSsrYSUvNgF2Mh3K-2" vertex="1">
          <mxGeometry y="320" width="320" height="40" as="geometry" />
        </mxCell>
        <mxCell id="ypzjpSsrYSUvNgF2Mh3K-11" value="原则9：类明确引用计数，创建者负责计算" style="text;strokeColor=default;fillColor=none;align=left;verticalAlign=middle;spacingLeft=4;spacingRight=4;overflow=hidden;points=[[0,0.5],[1,0.5]];portConstraint=eastwest;rotatable=0;whiteSpace=wrap;html=1;" parent="ypzjpSsrYSUvNgF2Mh3K-2" vertex="1">
          <mxGeometry y="360" width="320" height="40" as="geometry" />
        </mxCell>
        <mxCell id="N2mIHGAOBGrMYGSI0sjV-6" value="&lt;font style=&quot;font-size: 14px;&quot;&gt;Interface&lt;/font&gt;" style="swimlane;whiteSpace=wrap;html=1;startSize=40;strokeColor=default;align=center;verticalAlign=middle;spacingLeft=4;spacingRight=4;fontFamily=Helvetica;fontSize=12;fontColor=default;fillColor=none;gradientColor=none;" parent="1" vertex="1">
          <mxGeometry x="980" y="90" width="200" height="240" as="geometry" />
        </mxCell>
        <mxCell id="N2mIHGAOBGrMYGSI0sjV-7" value="User input" style="text;strokeColor=default;fillColor=none;align=left;verticalAlign=middle;spacingLeft=4;spacingRight=4;overflow=hidden;points=[[0,0.5],[1,0.5]];portConstraint=eastwest;rotatable=0;whiteSpace=wrap;html=1;" parent="N2mIHGAOBGrMYGSI0sjV-6" vertex="1">
          <mxGeometry x="20" y="60" width="160" height="40" as="geometry" />
        </mxCell>
        <mxCell id="N2mIHGAOBGrMYGSI0sjV-9" value="Control panel" style="text;strokeColor=default;fillColor=none;align=left;verticalAlign=middle;spacingLeft=4;spacingRight=4;overflow=hidden;points=[[0,0.5],[1,0.5]];portConstraint=eastwest;rotatable=0;whiteSpace=wrap;html=1;" parent="N2mIHGAOBGrMYGSI0sjV-6" vertex="1">
          <mxGeometry x="20" y="120" width="160" height="40" as="geometry" />
        </mxCell>
        <mxCell id="N2mIHGAOBGrMYGSI0sjV-10" value="Config panel" style="text;strokeColor=default;fillColor=none;align=left;verticalAlign=middle;spacingLeft=4;spacingRight=4;overflow=hidden;points=[[0,0.5],[1,0.5]];portConstraint=eastwest;rotatable=0;whiteSpace=wrap;html=1;" parent="N2mIHGAOBGrMYGSI0sjV-6" vertex="1">
          <mxGeometry x="20" y="180" width="160" height="40" as="geometry" />
        </mxCell>
        <mxCell id="N2mIHGAOBGrMYGSI0sjV-8" style="edgeStyle=orthogonalEdgeStyle;shape=connector;rounded=0;orthogonalLoop=1;jettySize=auto;html=1;exitX=1;exitY=0.5;exitDx=0;exitDy=0;entryX=0;entryY=0.5;entryDx=0;entryDy=0;dashed=1;strokeColor=default;align=center;verticalAlign=middle;fontFamily=Helvetica;fontSize=12;fontColor=default;fontStyle=1;labelBackgroundColor=default;startArrow=oval;startFill=1;endArrow=classic;endFill=1;" parent="1" source="N2mIHGAOBGrMYGSI0sjV-7" target="N2mIHGAOBGrMYGSI0sjV-12" edge="1">
          <mxGeometry relative="1" as="geometry" />
        </mxCell>
        <mxCell id="N2mIHGAOBGrMYGSI0sjV-11" value="&lt;font style=&quot;font-size: 14px;&quot;&gt;Internal Controller&lt;/font&gt;" style="swimlane;whiteSpace=wrap;html=1;startSize=40;strokeColor=default;align=center;verticalAlign=middle;spacingLeft=4;spacingRight=4;fontFamily=Helvetica;fontSize=12;fontColor=default;fillColor=none;gradientColor=none;" parent="1" vertex="1">
          <mxGeometry x="1220" y="150" width="200" height="120" as="geometry" />
        </mxCell>
        <mxCell id="N2mIHGAOBGrMYGSI0sjV-12" value="Logic Controller" style="text;strokeColor=default;fillColor=none;align=left;verticalAlign=middle;spacingLeft=4;spacingRight=4;overflow=hidden;points=[[0,0.5],[1,0.5]];portConstraint=eastwest;rotatable=0;whiteSpace=wrap;html=1;" parent="N2mIHGAOBGrMYGSI0sjV-11" vertex="1">
          <mxGeometry x="20" y="60" width="160" height="40" as="geometry" />
        </mxCell>
        <mxCell id="N2mIHGAOBGrMYGSI0sjV-15" style="edgeStyle=orthogonalEdgeStyle;shape=connector;rounded=0;orthogonalLoop=1;jettySize=auto;html=1;exitX=1;exitY=0.5;exitDx=0;exitDy=0;entryX=0;entryY=0.5;entryDx=0;entryDy=0;dashed=1;strokeColor=default;align=center;verticalAlign=middle;fontFamily=Helvetica;fontSize=12;fontColor=default;fontStyle=1;labelBackgroundColor=default;startArrow=oval;startFill=1;endArrow=classic;endFill=1;" parent="1" source="N2mIHGAOBGrMYGSI0sjV-9" target="N2mIHGAOBGrMYGSI0sjV-12" edge="1">
          <mxGeometry relative="1" as="geometry">
            <mxPoint x="1250" y="200" as="sourcePoint" />
            <mxPoint x="1330" y="260" as="targetPoint" />
          </mxGeometry>
        </mxCell>
        <mxCell id="N2mIHGAOBGrMYGSI0sjV-16" style="edgeStyle=orthogonalEdgeStyle;shape=connector;rounded=0;orthogonalLoop=1;jettySize=auto;html=1;exitX=1;exitY=0.5;exitDx=0;exitDy=0;entryX=0;entryY=0.5;entryDx=0;entryDy=0;dashed=1;strokeColor=default;align=center;verticalAlign=middle;fontFamily=Helvetica;fontSize=12;fontColor=default;fontStyle=1;labelBackgroundColor=default;startArrow=oval;startFill=1;endArrow=classic;endFill=1;" parent="1" source="N2mIHGAOBGrMYGSI0sjV-10" target="N2mIHGAOBGrMYGSI0sjV-12" edge="1">
          <mxGeometry relative="1" as="geometry">
            <mxPoint x="1430" y="210" as="sourcePoint" />
            <mxPoint x="1510" y="270" as="targetPoint" />
          </mxGeometry>
        </mxCell>
        <mxCell id="N2mIHGAOBGrMYGSI0sjV-18" value="" style="swimlane;startSize=0;strokeColor=default;align=center;verticalAlign=middle;spacingLeft=4;spacingRight=4;fontFamily=Helvetica;fontSize=12;fontColor=default;fontStyle=1;fillColor=none;gradientColor=none;dashed=1;" parent="1" vertex="1">
          <mxGeometry x="880" y="360" width="2060" height="1080" as="geometry" />
        </mxCell>
        <mxCell id="ypzjpSsrYSUvNgF2Mh3K-20" value="&lt;font style=&quot;font-size: 14px;&quot;&gt;Vector DB&lt;/font&gt;" style="swimlane;whiteSpace=wrap;html=1;startSize=40;" parent="N2mIHGAOBGrMYGSI0sjV-18" vertex="1">
          <mxGeometry x="680" y="80" width="200" height="240" as="geometry" />
        </mxCell>
        <mxCell id="ypzjpSsrYSUvNgF2Mh3K-17" value="Core / Base DB" style="text;strokeColor=default;fillColor=none;align=left;verticalAlign=middle;spacingLeft=4;spacingRight=4;overflow=hidden;points=[[0,0.5],[1,0.5]];portConstraint=eastwest;rotatable=0;whiteSpace=wrap;html=1;" parent="ypzjpSsrYSUvNgF2Mh3K-20" vertex="1">
          <mxGeometry x="20" y="60" width="160" height="40" as="geometry" />
        </mxCell>
        <mxCell id="ypzjpSsrYSUvNgF2Mh3K-21" value="Tentative DB" style="text;strokeColor=default;fillColor=none;align=left;verticalAlign=middle;spacingLeft=4;spacingRight=4;overflow=hidden;points=[[0,0.5],[1,0.5]];portConstraint=eastwest;rotatable=0;whiteSpace=wrap;html=1;" parent="ypzjpSsrYSUvNgF2Mh3K-20" vertex="1">
          <mxGeometry x="20" y="120" width="160" height="40" as="geometry" />
        </mxCell>
        <mxCell id="ypzjpSsrYSUvNgF2Mh3K-22" value="External DB" style="text;strokeColor=default;fillColor=none;align=left;verticalAlign=middle;spacingLeft=4;spacingRight=4;overflow=hidden;points=[[0,0.5],[1,0.5]];portConstraint=eastwest;rotatable=0;whiteSpace=wrap;html=1;" parent="ypzjpSsrYSUvNgF2Mh3K-20" vertex="1">
          <mxGeometry x="20" y="180" width="160" height="40" as="geometry" />
        </mxCell>
        <mxCell id="ypzjpSsrYSUvNgF2Mh3K-23" value="&lt;font style=&quot;font-size: 14px;&quot;&gt;Data Processor&lt;/font&gt;" style="swimlane;whiteSpace=wrap;html=1;startSize=40;" parent="N2mIHGAOBGrMYGSI0sjV-18" vertex="1">
          <mxGeometry x="440" y="80" width="200" height="240" as="geometry" />
        </mxCell>
        <mxCell id="ypzjpSsrYSUvNgF2Mh3K-33" value="Data Trans" style="text;strokeColor=default;fillColor=none;align=left;verticalAlign=middle;spacingLeft=4;spacingRight=4;overflow=hidden;points=[[0,0.5],[1,0.5]];portConstraint=eastwest;rotatable=0;whiteSpace=wrap;html=1;" parent="ypzjpSsrYSUvNgF2Mh3K-23" vertex="1">
          <mxGeometry x="20" y="60" width="160" height="40" as="geometry" />
        </mxCell>
        <mxCell id="ypzjpSsrYSUvNgF2Mh3K-34" value="Data Cleaner" style="text;strokeColor=default;fillColor=none;align=left;verticalAlign=middle;spacingLeft=4;spacingRight=4;overflow=hidden;points=[[0,0.5],[1,0.5]];portConstraint=eastwest;rotatable=0;whiteSpace=wrap;html=1;" parent="ypzjpSsrYSUvNgF2Mh3K-23" vertex="1">
          <mxGeometry x="20" y="120" width="160" height="40" as="geometry" />
        </mxCell>
        <mxCell id="ypzjpSsrYSUvNgF2Mh3K-35" value="Data Algorithm" style="text;strokeColor=default;fillColor=none;align=left;verticalAlign=middle;spacingLeft=4;spacingRight=4;overflow=hidden;points=[[0,0.5],[1,0.5]];portConstraint=eastwest;rotatable=0;whiteSpace=wrap;html=1;" parent="ypzjpSsrYSUvNgF2Mh3K-23" vertex="1">
          <mxGeometry x="20" y="180" width="160" height="40" as="geometry" />
        </mxCell>
        <mxCell id="ypzjpSsrYSUvNgF2Mh3K-36" value="&lt;font style=&quot;font-size: 14px;&quot;&gt;Data Algorithm&lt;/font&gt;" style="swimlane;horizontal=0;whiteSpace=wrap;html=1;startSize=40;verticalAlign=middle;direction=west;" parent="N2mIHGAOBGrMYGSI0sjV-18" vertex="1">
          <mxGeometry x="160" y="240" width="240" height="200" as="geometry" />
        </mxCell>
        <mxCell id="ypzjpSsrYSUvNgF2Mh3K-39" value="Chunking" style="text;strokeColor=default;fillColor=none;align=left;verticalAlign=middle;spacingLeft=4;spacingRight=4;overflow=hidden;points=[[0,0.5],[1,0.5]];portConstraint=eastwest;rotatable=0;whiteSpace=wrap;html=1;" parent="ypzjpSsrYSUvNgF2Mh3K-36" vertex="1">
          <mxGeometry x="20" y="20" width="160" height="40" as="geometry" />
        </mxCell>
        <mxCell id="ypzjpSsrYSUvNgF2Mh3K-40" value="Retrieval" style="text;strokeColor=default;fillColor=none;align=left;verticalAlign=middle;spacingLeft=4;spacingRight=4;overflow=hidden;points=[[0,0.5],[1,0.5]];portConstraint=eastwest;rotatable=0;whiteSpace=wrap;html=1;" parent="ypzjpSsrYSUvNgF2Mh3K-36" vertex="1">
          <mxGeometry x="20" y="80" width="160" height="40" as="geometry" />
        </mxCell>
        <mxCell id="ypzjpSsrYSUvNgF2Mh3K-41" value="Embedding" style="text;strokeColor=default;fillColor=none;align=left;verticalAlign=middle;spacingLeft=4;spacingRight=4;overflow=hidden;points=[[0,0.5],[1,0.5]];portConstraint=eastwest;rotatable=0;whiteSpace=wrap;html=1;" parent="ypzjpSsrYSUvNgF2Mh3K-36" vertex="1">
          <mxGeometry x="20" y="140" width="160" height="40" as="geometry" />
        </mxCell>
        <mxCell id="ypzjpSsrYSUvNgF2Mh3K-38" style="edgeStyle=orthogonalEdgeStyle;rounded=0;orthogonalLoop=1;jettySize=auto;html=1;exitX=0;exitY=0.5;exitDx=0;exitDy=0;entryX=0;entryY=0.5;entryDx=0;entryDy=0;endArrow=oval;startFill=1;dashed=1;endFill=1;startArrow=oval;" parent="N2mIHGAOBGrMYGSI0sjV-18" source="ypzjpSsrYSUvNgF2Mh3K-35" target="ypzjpSsrYSUvNgF2Mh3K-36" edge="1">
          <mxGeometry relative="1" as="geometry" />
        </mxCell>
        <mxCell id="ypzjpSsrYSUvNgF2Mh3K-42" value="&lt;font style=&quot;font-size: 14px;&quot;&gt;Generative Models&lt;/font&gt;" style="swimlane;whiteSpace=wrap;html=1;startSize=40;" parent="N2mIHGAOBGrMYGSI0sjV-18" vertex="1">
          <mxGeometry x="440" y="440" width="200" height="240" as="geometry" />
        </mxCell>
        <mxCell id="N2mIHGAOBGrMYGSI0sjV-21" value="BGE" style="text;strokeColor=default;fillColor=none;align=left;verticalAlign=middle;spacingLeft=4;spacingRight=4;overflow=hidden;points=[[0,0.5],[1,0.5]];portConstraint=eastwest;rotatable=0;whiteSpace=wrap;html=1;" parent="ypzjpSsrYSUvNgF2Mh3K-42" vertex="1">
          <mxGeometry x="20" y="60" width="160" height="40" as="geometry" />
        </mxCell>
        <mxCell id="ypzjpSsrYSUvNgF2Mh3K-43" value="&lt;font style=&quot;font-size: 14px;&quot;&gt;Vertical Container&lt;/font&gt;" style="swimlane;whiteSpace=wrap;html=1;startSize=40;" parent="N2mIHGAOBGrMYGSI0sjV-18" vertex="1">
          <mxGeometry x="440" y="840" width="320" height="200" as="geometry" />
        </mxCell>
        <mxCell id="ypzjpSsrYSUvNgF2Mh3K-44" value="&lt;font style=&quot;font-size: 14px;&quot;&gt;Embedding Models&lt;/font&gt;" style="swimlane;whiteSpace=wrap;html=1;startSize=40;" parent="N2mIHGAOBGrMYGSI0sjV-18" vertex="1">
          <mxGeometry x="40" y="480" width="200" height="240" as="geometry" />
        </mxCell>
        <mxCell id="N2mIHGAOBGrMYGSI0sjV-1" value="BGE" style="text;strokeColor=default;fillColor=none;align=left;verticalAlign=middle;spacingLeft=4;spacingRight=4;overflow=hidden;points=[[0,0.5],[1,0.5]];portConstraint=eastwest;rotatable=0;whiteSpace=wrap;html=1;" parent="ypzjpSsrYSUvNgF2Mh3K-44" vertex="1">
          <mxGeometry x="20" y="60" width="160" height="40" as="geometry" />
        </mxCell>
        <mxCell id="N2mIHGAOBGrMYGSI0sjV-2" value="M3E" style="text;strokeColor=default;fillColor=none;align=left;verticalAlign=middle;spacingLeft=4;spacingRight=4;overflow=hidden;points=[[0,0.5],[1,0.5]];portConstraint=eastwest;rotatable=0;whiteSpace=wrap;html=1;" parent="ypzjpSsrYSUvNgF2Mh3K-44" vertex="1">
          <mxGeometry x="20" y="120" width="160" height="40" as="geometry" />
        </mxCell>
        <mxCell id="N2mIHGAOBGrMYGSI0sjV-3" value="Chinese-Alpaca-2" style="text;strokeColor=default;fillColor=none;align=left;verticalAlign=middle;spacingLeft=4;spacingRight=4;overflow=hidden;points=[[0,0.5],[1,0.5]];portConstraint=eastwest;rotatable=0;whiteSpace=wrap;html=1;" parent="ypzjpSsrYSUvNgF2Mh3K-44" vertex="1">
          <mxGeometry x="20" y="180" width="160" height="40" as="geometry" />
        </mxCell>
        <mxCell id="ypzjpSsrYSUvNgF2Mh3K-45" style="edgeStyle=orthogonalEdgeStyle;rounded=0;orthogonalLoop=1;jettySize=auto;html=1;exitX=0;exitY=0.5;exitDx=0;exitDy=0;entryX=0.5;entryY=0;entryDx=0;entryDy=0;endArrow=oval;startFill=1;dashed=1;startArrow=oval;endFill=1;" parent="N2mIHGAOBGrMYGSI0sjV-18" source="ypzjpSsrYSUvNgF2Mh3K-41" target="ypzjpSsrYSUvNgF2Mh3K-44" edge="1">
          <mxGeometry relative="1" as="geometry" />
        </mxCell>
        <mxCell id="OFCB0voKg6nkLYQDk2On-1" value="&lt;font style=&quot;font-size: 14px;&quot;&gt;Usual Vector DB&lt;/font&gt;" style="swimlane;whiteSpace=wrap;html=1;startSize=40;" vertex="1" parent="N2mIHGAOBGrMYGSI0sjV-18">
          <mxGeometry x="1000" y="80" width="200" height="720" as="geometry" />
        </mxCell>
        <mxCell id="OFCB0voKg6nkLYQDk2On-2" value="FAISS" style="text;strokeColor=default;fillColor=none;align=left;verticalAlign=middle;spacingLeft=4;spacingRight=4;overflow=hidden;points=[[0,0.5],[1,0.5]];portConstraint=eastwest;rotatable=0;whiteSpace=wrap;html=1;" vertex="1" parent="OFCB0voKg6nkLYQDk2On-1">
          <mxGeometry x="20" y="60" width="160" height="40" as="geometry" />
        </mxCell>
        <mxCell id="OFCB0voKg6nkLYQDk2On-3" value="Chroma" style="text;strokeColor=default;fillColor=none;align=left;verticalAlign=middle;spacingLeft=4;spacingRight=4;overflow=hidden;points=[[0,0.5],[1,0.5]];portConstraint=eastwest;rotatable=0;whiteSpace=wrap;html=1;" vertex="1" parent="OFCB0voKg6nkLYQDk2On-1">
          <mxGeometry x="20" y="120" width="160" height="40" as="geometry" />
        </mxCell>
        <mxCell id="OFCB0voKg6nkLYQDk2On-4" value="Redis" style="text;strokeColor=default;fillColor=none;align=left;verticalAlign=middle;spacingLeft=4;spacingRight=4;overflow=hidden;points=[[0,0.5],[1,0.5]];portConstraint=eastwest;rotatable=0;whiteSpace=wrap;html=1;" vertex="1" parent="OFCB0voKg6nkLYQDk2On-1">
          <mxGeometry x="20" y="180" width="160" height="40" as="geometry" />
        </mxCell>
        <mxCell id="OFCB0voKg6nkLYQDk2On-5" value="Elasticsearch" style="text;strokeColor=default;fillColor=none;align=left;verticalAlign=middle;spacingLeft=4;spacingRight=4;overflow=hidden;points=[[0,0.5],[1,0.5]];portConstraint=eastwest;rotatable=0;whiteSpace=wrap;html=1;" vertex="1" parent="OFCB0voKg6nkLYQDk2On-1">
          <mxGeometry x="20" y="240" width="160" height="40" as="geometry" />
        </mxCell>
        <mxCell id="OFCB0voKg6nkLYQDk2On-6" value="Milvus" style="text;strokeColor=default;fillColor=none;align=left;verticalAlign=middle;spacingLeft=4;spacingRight=4;overflow=hidden;points=[[0,0.5],[1,0.5]];portConstraint=eastwest;rotatable=0;whiteSpace=wrap;html=1;" vertex="1" parent="OFCB0voKg6nkLYQDk2On-1">
          <mxGeometry x="20" y="300" width="160" height="40" as="geometry" />
        </mxCell>
        <mxCell id="OFCB0voKg6nkLYQDk2On-7" value="Weaviate" style="text;strokeColor=default;fillColor=none;align=left;verticalAlign=middle;spacingLeft=4;spacingRight=4;overflow=hidden;points=[[0,0.5],[1,0.5]];portConstraint=eastwest;rotatable=0;whiteSpace=wrap;html=1;" vertex="1" parent="OFCB0voKg6nkLYQDk2On-1">
          <mxGeometry x="20" y="360" width="160" height="40" as="geometry" />
        </mxCell>
        <mxCell id="OFCB0voKg6nkLYQDk2On-9" value="Pinecone" style="text;strokeColor=default;fillColor=none;align=left;verticalAlign=middle;spacingLeft=4;spacingRight=4;overflow=hidden;points=[[0,0.5],[1,0.5]];portConstraint=eastwest;rotatable=0;whiteSpace=wrap;html=1;" vertex="1" parent="OFCB0voKg6nkLYQDk2On-1">
          <mxGeometry x="20" y="420" width="160" height="40" as="geometry" />
        </mxCell>
        <mxCell id="OFCB0voKg6nkLYQDk2On-8" value="Vespa" style="text;strokeColor=default;fillColor=none;align=left;verticalAlign=middle;spacingLeft=4;spacingRight=4;overflow=hidden;points=[[0,0.5],[1,0.5]];portConstraint=eastwest;rotatable=0;whiteSpace=wrap;html=1;" vertex="1" parent="OFCB0voKg6nkLYQDk2On-1">
          <mxGeometry x="20" y="480" width="160" height="40" as="geometry" />
        </mxCell>
        <mxCell id="OFCB0voKg6nkLYQDk2On-11" value="Vald" style="text;strokeColor=default;fillColor=none;align=left;verticalAlign=middle;spacingLeft=4;spacingRight=4;overflow=hidden;points=[[0,0.5],[1,0.5]];portConstraint=eastwest;rotatable=0;whiteSpace=wrap;html=1;" vertex="1" parent="OFCB0voKg6nkLYQDk2On-1">
          <mxGeometry x="20" y="540" width="160" height="40" as="geometry" />
        </mxCell>
        <mxCell id="OFCB0voKg6nkLYQDk2On-10" value="Zilliz" style="text;strokeColor=default;fillColor=none;align=left;verticalAlign=middle;spacingLeft=4;spacingRight=4;overflow=hidden;points=[[0,0.5],[1,0.5]];portConstraint=eastwest;rotatable=0;whiteSpace=wrap;html=1;" vertex="1" parent="OFCB0voKg6nkLYQDk2On-1">
          <mxGeometry x="20" y="600" width="160" height="40" as="geometry" />
        </mxCell>
        <mxCell id="OFCB0voKg6nkLYQDk2On-13" value="Typesense" style="text;strokeColor=default;fillColor=none;align=left;verticalAlign=middle;spacingLeft=4;spacingRight=4;overflow=hidden;points=[[0,0.5],[1,0.5]];portConstraint=eastwest;rotatable=0;whiteSpace=wrap;html=1;" vertex="1" parent="OFCB0voKg6nkLYQDk2On-1">
          <mxGeometry x="20" y="660" width="160" height="40" as="geometry" />
        </mxCell>
        <mxCell id="OFCB0voKg6nkLYQDk2On-14" style="edgeStyle=orthogonalEdgeStyle;rounded=0;orthogonalLoop=1;jettySize=auto;html=1;exitX=1;exitY=0.5;exitDx=0;exitDy=0;entryX=-0.007;entryY=0.029;entryDx=0;entryDy=0;entryPerimeter=0;dashed=1;startArrow=oval;startFill=1;endArrow=oval;endFill=1;" edge="1" parent="N2mIHGAOBGrMYGSI0sjV-18" source="ypzjpSsrYSUvNgF2Mh3K-22" target="OFCB0voKg6nkLYQDk2On-1">
          <mxGeometry relative="1" as="geometry" />
        </mxCell>
        <mxCell id="N2mIHGAOBGrMYGSI0sjV-20" style="edgeStyle=orthogonalEdgeStyle;shape=connector;rounded=0;orthogonalLoop=1;jettySize=auto;html=1;exitX=1;exitY=0.5;exitDx=0;exitDy=0;dashed=1;strokeColor=default;align=center;verticalAlign=middle;fontFamily=Helvetica;fontSize=12;fontColor=default;fontStyle=1;labelBackgroundColor=default;startArrow=oval;startFill=1;endArrow=oval;endFill=1;entryX=0.788;entryY=-0.002;entryDx=0;entryDy=0;entryPerimeter=0;" parent="1" source="N2mIHGAOBGrMYGSI0sjV-12" target="N2mIHGAOBGrMYGSI0sjV-18" edge="1">
          <mxGeometry relative="1" as="geometry">
            <mxPoint x="1520" y="230.0689655172414" as="targetPoint" />
          </mxGeometry>
        </mxCell>
      </root>
    </mxGraphModel>
  </diagram>
</mxfile>
